HIERARCHY
ROOT hip
{
  OFFSET 0 0 0
  CHANNELS 6 Xposition Yposition Zposition Zrotation Yrotation Xrotation
  JOINT abdomen
  {
    OFFSET 0 20.6881 -0.73152
    CHANNELS 3 Zrotation Xrotation Yrotation
    JOINT chest
    {
      OFFSET 0 11.7043 -0.48768
      CHANNELS 3 Zrotation Xrotation Yrotation
      JOINT neck
      {
        OFFSET 0 22.1894 -2.19456
        CHANNELS 3 Zrotation Xrotation Yrotation
        JOINT head
        {
          OFFSET -0.24384 7.07133 1.2192
          CHANNELS 3 Zrotation Xrotation Yrotation
          JOINT leftEye
          {
            OFFSET 4.14528 8.04674 8.04672
            CHANNELS 3 Zrotation Xrotation Yrotation
            End Site
            {
              OFFSET 1 0 0
            }
          }
          JOINT rightEye
          {
            OFFSET -3.6576 8.04674 8.04672
            CHANNELS 3 Zrotation Xrotation Yrotation
            End Site
            {
              OFFSET 1 0 0
            }
          }
        }
      }
      JOINT rCollar
      {
        OFFSET -2.68224 19.2634 -4.8768
        CHANNELS 3 Zrotation Xrotation Yrotation
        JOINT rShldr
        {
          OFFSET -8.77824 -1.95073 1.46304
          CHANNELS 3 Zrotation Xrotation Yrotation
          JOINT rForeArm
          {
            OFFSET -28.1742 -1.7115 0.48768
            CHANNELS 3 Zrotation Xrotation Yrotation
            JOINT rHand
            {
              OFFSET -22.5879 0.773209 7.07136
              CHANNELS 3 Zrotation Xrotation Yrotation
              JOINT rThumb1
              {
                OFFSET -1.2192 -0.487915 3.41376
                CHANNELS 3 Zrotation Xrotation Yrotation
                JOINT rThumb2
                {
                  OFFSET -3.37035 -0.52449 3.41376
                  CHANNELS 3 Zrotation Xrotation Yrotation
                  End Site
                  {
                    OFFSET -1.78271 -1.18214 1.43049
                  }
                }
              }
              JOINT rIndex1
              {
                OFFSET -7.75947 0.938293 5.60832
                CHANNELS 3 Zrotation Xrotation Yrotation
                JOINT rIndex2
                {
                  OFFSET -2.54057 -0.884171 1.56538
                  CHANNELS 3 Zrotation Xrotation Yrotation
                  End Site
                  {
                    OFFSET -1.62519 -0.234802 1.16502
                  }
                }
              }
              JOINT rMid1
              {
                OFFSET -8.24714 1.18213 3.41376
                CHANNELS 3 Zrotation Xrotation Yrotation
                JOINT rMid2
                {
                  OFFSET -3.10165 -0.590103 1.0647
                  CHANNELS 3 Zrotation Xrotation Yrotation
                  End Site
                  {
                    OFFSET -2.48547 -0.328903 0.83742
                  }
                }
              }
              JOINT rRing1
              {
                OFFSET -8.82822 0.546677 1.51678
                CHANNELS 3 Zrotation Xrotation Yrotation
                JOINT rRing2
                {
                  OFFSET -2.60934 -0.819778 -0.0198488
                  CHANNELS 3 Zrotation Xrotation Yrotation
                  End Site
                  {
                    OFFSET -2.33842 -0.294052 0.168128
                  }
                }
              }
              JOINT rPinky1
              {
                OFFSET -8.27202 -0.0477905 -0.4584
                CHANNELS 3 Zrotation Xrotation Yrotation
                JOINT rPinky2
                {
                  OFFSET -1.82734 -0.647385 -0.700984
                  CHANNELS 3 Zrotation Xrotation Yrotation
                  End Site
                  {
                    OFFSET -1.69225 -0.51767 -0.607171
                  }
                }
              }
            }
          }
        }
      }
      JOINT lCollar
      {
        OFFSET 2.68224 19.2634 -4.8768
        CHANNELS 3 Zrotation Xrotation Yrotation
        JOINT lShldr
        {
          OFFSET 8.77824 -1.95073 1.46304
          CHANNELS 3 Zrotation Xrotation Yrotation
          JOINT lForeArm
          {
            OFFSET 28.1742 -1.7115 0.48768
            CHANNELS 3 Zrotation Xrotation Yrotation
            JOINT lHand
            {
              OFFSET 22.5879 0.773209 7.07136
              CHANNELS 3 Zrotation Xrotation Yrotation
              JOINT lThumb1
              {
                OFFSET 1.2192 -0.487915 3.41376
                CHANNELS 3 Zrotation Xrotation Yrotation
                JOINT lThumb2
                {
                  OFFSET 3.37035 -0.52449 3.41376
                  CHANNELS 3 Zrotation Xrotation Yrotation
                  End Site
                  {
                    OFFSET 1.78271 -1.18214 1.43049
                  }
                }
              }
              JOINT lIndex1
              {
                OFFSET 7.75947 0.938293 5.60832
                CHANNELS 3 Zrotation Xrotation Yrotation
                JOINT lIndex2
                {
                  OFFSET 2.54057 -0.884171 1.56538
                  CHANNELS 3 Zrotation Xrotation Yrotation
                  End Site
                  {
                    OFFSET 1.62519 -0.234802 1.16502
                  }
                }
              }
              JOINT lMid1
              {
                OFFSET 8.24714 1.18213 3.41376
                CHANNELS 3 Zrotation Xrotation Yrotation
                JOINT lMid2
                {
                  OFFSET 3.10165 -0.590103 1.0647
                  CHANNELS 3 Zrotation Xrotation Yrotation
                  End Site
                  {
                    OFFSET 2.48547 -0.328903 0.83742
                  }
                }
              }
              JOINT lRing1
              {
                OFFSET 8.82822 0.546677 1.51678
                CHANNELS 3 Zrotation Xrotation Yrotation
                JOINT lRing2
                {
                  OFFSET 2.60934 -0.819778 -0.0198488
                  CHANNELS 3 Zrotation Xrotation Yrotation
                  End Site
                  {
                    OFFSET 2.33842 -0.294052 0.168128
                  }
                }
              }
              JOINT lPinky1
              {
                OFFSET 8.27202 -0.0477905 -0.4584
                CHANNELS 3 Zrotation Xrotation Yrotation
                JOINT lPinky2
                {
                  OFFSET 1.82734 -0.647385 -0.700984
                  CHANNELS 3 Zrotation Xrotation Yrotation
                  End Site
                  {
                    OFFSET 1.69225 -0.51767 -0.607171
                  }
                }
              }
            }
          }
        }
      }
    }
  }
  JOINT rButtock
  {
    OFFSET -8.77824 4.35084 1.2192
    CHANNELS 3 Zrotation Xrotation Yrotation
    JOINT rThigh
    {
      OFFSET 0 -1.70687 -2.19456
      CHANNELS 3 Zrotation Xrotation Yrotation
      JOINT rShin
      {
        OFFSET 0 -36.8199 0.73152
        CHANNELS 3 Zrotation Xrotation Yrotation
        JOINT rFoot
        {
          OFFSET 0.73152 -45.1104 -5.12064
          CHANNELS 3 Zrotation Xrotation Yrotation
          End Site
          {
            OFFSET -1.1221 -3.69964 12.103
          }
        }
      }
    }
  }
  JOINT lButtock
  {
    OFFSET 8.77824 4.35084 1.2192
    CHANNELS 3 Zrotation Xrotation Yrotation
    JOINT lThigh
    {
      OFFSET 0 -1.70687 -2.19456
      CHANNELS 3 Zrotation Xrotation Yrotation
      JOINT lShin
      {
        OFFSET 0 -36.8199 0.73152
        CHANNELS 3 Zrotation Xrotation Yrotation
        JOINT lFoot
        {
          OFFSET -0.73152 -45.1104 -5.12064
          CHANNELS 3 Zrotation Xrotation Yrotation
          End Site
          {
            OFFSET 1.1221 -3.69964 12.103
          }
        }
      }
    }
  }
}
MOTION
Frames:	4
Frame Time:	0.03333
0.012447399087250233 -0.2918500006198883 0.06699444353580475 -19.19220596551895 -2.4630483984947205 3.46197746694088 -1.502676922827959 13.099530637264252 3.7759488075971603 2.209617868065834 -9.301131069660187 0.9946573153138161 -4.322340935468674 14.292775690555573 -3.102731443941593 8.446646332740784 -22.892675399780273 -4.879679158329964 0.06365095730870962 0.2968335337936878 -0.13729268219321966 -0.043814051896333694 0.32693613320589066 0.10358311934396625 -0.10207196697592735 -0.09365687146782875 0.09349518455564976 42.691098153591156 26.36507660150528 11.532943546772003 -23.158305287361145 -27.042870819568634 60.10320782661438 -3.9198043942451477 -10.164471119642258 -3.596103675663471 0.05423062015324831 0.027761952951550484 0.6983521766960621 0.13567795045673847 -0.013369512744247913 -0.15016288496553898 -0.026440483052283525 -0.012865466997027397 0.20262186415493488 7.730808332562447 5.2549077942967415 0.5114940740168095 -0.04170498694293201 -0.11626531602814794 0.20788243040442467 2.808630410581827 1.1027660965919495 -0.00527355819940567 -0.4944761283695698 0.2789141982793808 -0.06770985201001167 10.211486890912056 0.6929397722706199 -0.22656602784991264 -0.2296079881489277 0.2243196777999401 -0.06537687499076128 2.1515825763344765 -0.8542578388005495 -0.7137120142579079 -0.1540236733853817 0.19228207413107157 -0.11704233940690756 -50.241358280181885 27.843748927116394 -24.70076858997345 21.478067636489868 -23.53580206632614 -55.82456409931183 4.625787287950516 -12.149477452039719 3.5839321464300156 -0.08553514257073402 -0.045328724663704634 -0.09607846615836024 0.08530371822416782 -0.19707027822732925 -0.486244261264801 -0.5360973067581654 0.18542804522439837 0.07874651346355677 -7.7368781715631485 5.371547341346741 -0.4137724405154586 -0.0348589732311666 0.0023523811250925064 -0.10309271514415741 -3.007406070828438 0.8325725141912699 -0.27463347651064396 -0.5227239802479744 0.0331351300701499 0.11899406556040049 -10.270175635814667 0.9273854177445173 -0.16292303334921598 -0.20272047724574804 -0.0886883307248354 0.11406475212424994 -2.3532535135746 -0.7704678922891617 0.19602021435275674 0.14726773370057344 -0.07190985605120659 -0.2578954864293337 -30.11974811553955 -30.19830733537674 -25.015335381031036 -19.38862144947052 56.247349977493286 21.135643422603607 -4.853922910988331 -10.567076727747917 -9.57700565457344 -0.2740552928298712 -0.18806828185915947 0.04361929837614298 35.35188227891922 -31.8998846411705 28.529423475265503 20.846984088420868 57.99708366394043 -18.578210771083832 4.913259744644165 -9.926985651254654 11.892823576927185
0.004846435971558094 -0.9262438416481018 0.18339277803897858 -22.450255751609802 -0.9451350197196007 6.861401796340942 -2.3401846177875996 14.124031215906143 4.444385468959808 2.6687631011009216 -9.824485033750534 1.1495156586170197 -4.6177805587649345 15.387813001871109 -3.184347040951252 8.6229258030653 -24.773504734039307 -4.903851896524429 -0.0016200123354792595 -0.16716130077838898 0.003275773487985134 0.047653550282120705 0.15061676502227783 0.018587498925626278 0.0862679723650217 0.04071534611284733 -0.05993169732391834 49.91618871688843 30.676156282424927 13.95706370472908 -24.16855126619339 -30.67034661769867 68.15375089645386 -5.229850262403488 -14.292858839035034 -4.612464085221291 -0.08067577611654997 0.14526328537613153 0.09728958830237389 0.07691900711506605 -0.0722122541628778 -0.03930576145648956 -0.13307968620210886 -0.12719571590423584 -0.007978230714797974 7.734916806221008 5.429389849305153 0.4646480781957507 -0.08676950877998024 -0.09510375559329987 0.03697802312672138 2.914084978401661 0.9064703062176704 0.14114446006715298 -0.002992842346429825 0.07701544091105461 0.10341977700591087 10.453149229288101 0.765108335763216 0.021761851385235786 0.005112122744321823 -0.009579090401530266 0.05706931930035353 2.1825126372277737 -0.8841538242995739 -0.4024575836956501 -0.017297440208494663 -0.07875066250562668 -0.11038339929655194 -59.146753549575806 31.878646910190582 -25.261366367340088 22.927887439727783 -27.501359581947327 -62.46122896671295 5.764323994517326 -11.710162460803986 3.7400390580296516 0.06272010505199432 0.025306579191237688 -0.058164268266409636 -0.03878394607454538 -0.041148606687784195 -0.02721620723605156 -0.11522719636559486 0.1122088311240077 -0.027672434225678444 -7.7043986320495605 5.429452210664749 -0.41845972649753094 0.04334780853241682 -0.12008752673864365 0.09310106746852398 -2.9969193041324615 0.9004876390099525 -0.16524674836546183 0.37696268409490585 -0.05680786678567529 -0.06406833417713642 -10.244932696223259 0.6422518473118544 -0.024711526930332184 -0.03873197827488184 -0.012945891357958317 0.03553453367203474 -2.131776474416256 -0.9031215682625771 0.08224159944802523 0.09085538797080517 -0.09206154383718967 -0.021118707954883575 -33.73178780078888 -33.538526594638824 -29.658110439777374 -22.122707068920135 62.88048505783081 21.770849525928497 -4.99031625688076 -10.99787101149559 -10.951771885156631 -0.043999459594488144 0.015814639627933502 -0.03506963141262531 41.98101818561554 -34.44807708263397 35.58442175388336 22.661238312721252 64.46402370929718 -22.628483176231384 4.748409166932106 -10.572018697857857 13.329307436943054
-0.032616003416478634 -1.3715683221817017 0.02345086634159088 -132.08236813545227 27.26710081100464 -124.89100098609924 -1.5385974012315273 18.98640275001526 8.014115318655968 1.1768825724720955 -12.038666009902954 1.440590489655733 -3.518019877374172 16.714177429676056 1.0927954874932766 8.003668785095215 -27.225813567638397 4.678143002092838 0.3203267720527947 0.10544886812567711 0.5188256409019232 0.7938509713858366 0.16272693872451782 0.050060476642102 0.14776909723877907 0.44920538552105427 0.5826571444049478 44.0760138630867 42.71626263856888 17.71831065416336 -27.05759346485138 -40.45253187417984 87.7287483215332 -4.313214719295502 -13.919747471809387 -4.070487208664417 -0.29626972507685423 -0.3396694385446608 -0.4725068248808384 -0.11002174112945795 0.06860145600512624 -0.3695553448051214 -0.5685942806303501 0.051261414773762226 -0.15086528845131397 8.16429890692234 5.538657009601593 0.33797476440668106 -0.3487092792056501 -0.5066677741706371 0.2685511903837323 3.10347743332386 0.7553832326084375 0.44085600413382053 0.8810637518763542 0.29638543725013733 -0.2081231796182692 10.614170953631401 0.5710917944088578 0.13087721541523933 0.33019987866282463 -0.10444060899317265 -0.46632814686745405 2.2363216057419777 -1.0369532369077206 -0.5989895761013031 -0.5555931106209755 -0.18901552073657513 -0.2425739332102239 -53.85221242904663 26.75917625427246 -36.89965903759003 26.065755486488342 -37.81269371509552 -81.82922422885895 8.06886188685894 -24.64380383491516 5.062916614115238 -0.11400884483009577 0.24009957443922758 0.18958706175908446 -0.3022368857637048 -0.19077270291745663 0.05597921088337898 0.1881697028875351 0.018670479767024517 0.0768356490880251 -7.74829164147377 5.456690043210983 -0.4943521600216627 0.21461548749357462 -0.771342208608985 0.2747040521353483 -3.0083277449011803 1.0721741616725922 -0.3685126779600978 0.7681068778038025 0.3647289611399174 0.414756559766829 -10.592749491333961 0.6446089223027229 -0.2845395659096539 -0.14876641798764467 -0.2861827751621604 -0.11741730384528637 -1.8140476942062378 -1.28269387409091 0.2650161646306515 0.18304144497960806 -0.27267028810456395 0.05074203014373779 -56.477091908454895 -42.63487637042999 -46.97621405124664 -89.59357559680939 78.51486682891846 92.5526475906372 -3.6419962719082832 -18.965675979852676 -8.410920649766922 0.02386537380516529 -0.18915449269115925 -0.07800245191901922 77.24190652370453 -49.71665382385254 67.09653675556183 104.0955662727356 82.91307806968689 -109.17641043663025 2.02506210654974 -17.07423985004425 4.634472951292992
-0.0628294600173831 -2.1411914825439453 -0.16700708866119385 -166.9888401031494 61.162739396095276 -160.24657130241394 -3.1325311213731766 19.363998770713806 15.288551151752472 -2.0818256959319115 -13.814449310302734 3.5575687140226364 -0.8062227442860603 17.569741755723953 5.891626328229904 5.091168321669102 -24.570136964321136 14.993406236171722 0.04075461532920599 0.9738137014210224 0.43894853442907333 0.5990939307957888 0.22450407966971397 0.4691994097083807 0.399809991940856 0.44408412650227547 0.42401768267154694 24.244774281978607 50.41043400764465 31.16456776857376 -27.18453973531723 -43.3277902007103 94.88521456718445 3.559608533978462 -3.276970088481903 0.7995374221354723 -0.4231633571907878 -0.3718326659873128 -1.3418432883918285 -0.26574958115816116 0.0422823429107666 -0.2051408775150776 -0.7269002683460712 0.10789550375193357 -0.14860879629850388 8.094169199466705 5.202855505049229 0.6625858414918184 -0.2809368562884629 -0.42045327834784985 0.7357665617018938 2.9324188828468323 0.36541275680065155 0.5645465757697821 0.4938201606273651 0.4755517188459635 -0.5264739179983735 11.394163370132446 0.39149091113358736 0.1943751610815525 0.47378774732351303 0.13889324851334095 -0.6595337809994817 2.541620023548603 -1.0960895754396915 -1.5493517182767391 -0.7416478917002678 -0.20729963667690754 -0.1485568075440824 -49.49768900871277 18.125389516353607 -28.03815007209778 27.79462695121765 -43.91029894351959 -93.5584545135498 3.145705796778202 -41.836785078048706 5.1491570100188255 -0.12554313987493515 0.30200143810361624 0.377300139516592 -0.8979842998087406 -0.7327030599117279 -0.025057531893253326 0.4328659549355507 -0.02446359023451805 0.050586797297000885 -7.986265942454338 5.2265337109565735 -0.6767272856086493 0.01888966653496027 -0.0051309820264577866 -0.24322342593222857 -2.9956412315368652 0.79013267531991 -0.3950210753828287 -0.9107133932411671 0.7072264328598976 1.1266424506902695 -10.764842703938484 0.38877940736711025 -0.7055728510022163 -0.46286906115710735 -0.510797998867929 -0.1433050213381648 -1.7981048114597797 -1.1032737046480179 0.31554311513900757 0.23952709045261145 -0.21565712755545974 -0.15098112635314465 -65.16604363918304 -47.65064477920532 -52.8208065032959 -157.60050773620605 86.78207874298096 161.689932346344 -4.015336632728577 -25.698998272418976 -5.880496501922607 0.9334560111165047 -1.0930732637643814 -0.14233209192752838 98.30178022384644 -61.57605171203613 77.58353412151337 179.66667652130127 88.5706776380539 -186.36674880981445 -2.0620423927903175 -24.412533044815063 -4.604709818959236
